<svg height='300px' width='300px'  fill="#ffffff" xmlns="http://www.w3.org/2000/svg" xmlns:xlink="http://www.w3.org/1999/xlink" version="1.1" x="0px" y="0px" viewBox="0 0 96 96" enable-background="new 0 0 96 96" xml:space="preserve"><path d="M96,86.372L86.372,96H75.088l20.916-20.916L96,86.372z M57.632,96L96,57.632v11.28L68.916,96H57.632z M40.18,96L96,40.176  V51.46L51.464,96H40.18z M22.724,96L96,22.728v11.28L34.008,96H22.724z M5.268,96L96,5.264v11.28L16.556,95.992L5.268,96z M0,13.992  L13.996,0H25.28L0.004,25.272L0,13.992z M0,31.444L31.448,0h11.284L-0.004,42.736V31.444H0z M60.188,0L0,60.188V48.908L48.904,0  H60.188z M77.645,0L0,77.641V66.359L66.359,0H77.645z M0,83.813L83.813,0h11.279L0,95.092V83.813z M7.824,0L0,7.82V0H7.824z   M92.548,96L96,92.548V96H92.548z"></path></svg>